+ filenameToUse=/home/horvathandras/vatic/vatic/public/videouploads/DJI_0043_autonyom_regi_turasok_kotcse_20180710_napos_kalaszos_T4.avi
+ filenameNoDot=DJI_0043_autonyom_regi_turasok_kotcse_20180710_napos_kalaszos_T4
+ FullUploadPath=/home/horvathandras/vatic/vatic/public/videouploads/DJI_0043_autonyom_regi_turasok_kotcse_20180710_napos_kalaszos_T4.avi
+ VideoDataDir=/home/horvathandras/vatic/vatic/videos
+ AvailableObjectTypes='PozitívROI NegatívROI Túrás ~Friss ~1-2Hetes ~Régebbi ~Egyéb1 ~Egyéb2 ~Egyéb3 Rágás ~Friss ~1-2Hetes ~Régebbi ~Egyéb1 ~Egyéb2 ~Egyéb3 Törés ~Friss ~1-2Hetes ~Régebbi ~Egyéb1 ~Egyéb2 ~Egyéb3 Taposás ~Friss ~1-2Hetes ~Régebbi ~Egyéb1 ~Egyéb2 ~Egyéb3 EgészségesNövény Egyéb1 Egyéb2 Egyéb3 Egyéb4 Egyéb5 Bizonytalan Művelőút Gktaposás Vetőhiba Széldöntés Jégkár Belvíz Aszály Erózió EgyszikűGyom KétszikűGyom EgyébNövvédelmiPR'
++ dirname /home/horvathandras/vatic/vatic/vatic_publisher.sh
+ cd /home/horvathandras/vatic/vatic
+ touch /home/horvathandras/vatic/vatic/public/videouploads/DJI_0043_autonyom_regi_turasok_kotcse_20180710_napos_kalaszos_T4.avi
+ chmod 744 /home/horvathandras/vatic/vatic/public/videouploads/DJI_0043_autonyom_regi_turasok_kotcse_20180710_napos_kalaszos_T4.avi
+ mkdir /home/horvathandras/vatic/vatic/videos/DJI_0043_autonyom_regi_turasok_kotcse_20180710_napos_kalaszos_T4
+ turkic extract /home/horvathandras/vatic/vatic/public/videouploads/DJI_0043_autonyom_regi_turasok_kotcse_20180710_napos_kalaszos_T4.avi /home/horvathandras/vatic/vatic/videos/DJI_0043_autonyom_regi_turasok_kotcse_20180710_napos_kalaszos_T4 --no-resize
ffmpeg version 2.8.14-0ubuntu0.16.04.1 Copyright (c) 2000-2018 the FFmpeg developers
  built with gcc 5.4.0 (Ubuntu 5.4.0-6ubuntu1~16.04.9) 20160609
  configuration: --prefix=/usr --extra-version=0ubuntu0.16.04.1 --build-suffix=-ffmpeg --toolchain=hardened --libdir=/usr/lib/x86_64-linux-gnu --incdir=/usr/include/x86_64-linux-gnu --cc=cc --cxx=g++ --enable-gpl --enable-shared --disable-stripping --disable-decoder=libopenjpeg --disable-decoder=libschroedinger --enable-avresample --enable-avisynth --enable-gnutls --enable-ladspa --enable-libass --enable-libbluray --enable-libbs2b --enable-libcaca --enable-libcdio --enable-libflite --enable-libfontconfig --enable-libfreetype --enable-libfribidi --enable-libgme --enable-libgsm --enable-libmodplug --enable-libmp3lame --enable-libopenjpeg --enable-libopus --enable-libpulse --enable-librtmp --enable-libschroedinger --enable-libshine --enable-libsnappy --enable-libsoxr --enable-libspeex --enable-libssh --enable-libtheora --enable-libtwolame --enable-libvorbis --enable-libvpx --enable-libwavpack --enable-libwebp --enable-libx265 --enable-libxvid --enable-libzvbi --enable-openal --enable-opengl --enable-x11grab --enable-libdc1394 --enable-libiec61883 --enable-libzmq --enable-frei0r --enable-libx264 --enable-libopencv
  libavutil      54. 31.100 / 54. 31.100
  libavcodec     56. 60.100 / 56. 60.100
  libavformat    56. 40.101 / 56. 40.101
  libavdevice    56.  4.100 / 56.  4.100
  libavfilter     5. 40.101 /  5. 40.101
  libavresample   2.  1.  0 /  2.  1.  0
  libswscale      3.  1.101 /  3.  1.101
  libswresample   1.  2.101 /  1.  2.101
  libpostproc    53.  3.100 / 53.  3.100
Input #0, mov,mp4,m4a,3gp,3g2,mj2, from '/home/horvathandras/vatic/vatic/public/videouploads/DJI_0043_autonyom_regi_turasok_kotcse_20180710_napos_kalaszos_T4.avi':
  Metadata:
    major_brand     : qt  
    minor_version   : 537986816
    compatible_brands: qt  
    creation_time   : 2018-07-10 11:08:50
    location        : +46.722552+17.867034+30.100
    location-{    : +46.722552+17.867034+30.100
    comment         : DE=None, Mode=P, DSW=0001
  Duration: 00:00:14.98, start: 0.000000, bitrate: 101236 kb/s
    Stream #0:0(eng): Video: h264 (High) (avc1 / 0x31637661), yuv420p(tv, bt709), 4096x2160 [SAR 1:1 DAR 256:135], 101013 kb/s, 50 fps, 50 tbr, 50k tbn, 100 tbc (default)
    Metadata:
      creation_time   : 2018-07-10 11:08:50
      handler_name    : DJI.AVC
      encoder         : AVC encoder
    Stream #0:1(eng): Data: none (priv / 0x76697270), 204 kb/s
    Metadata:
      creation_time   : 2018-07-10 11:08:50
      handler_name    : DJI.Meta
Please use -b:a or -b:v, -b is ambiguous
[swscaler @ 0xb3f220] deprecated pixel format used, make sure you did set range correctly
Output #0, image2, to '/tmp/pyvision-ffmpeg-65127766/%d.jpg':
  Metadata:
    major_brand     : qt  
    minor_version   : 537986816
    compatible_brands: qt  
    comment         : DE=None, Mode=P, DSW=0001
    location        : +46.722552+17.867034+30.100
    location-{    : +46.722552+17.867034+30.100
    encoder         : Lavf56.40.101
    Stream #0:0(eng): Video: mjpeg, yuvj420p(pc), 4096x2160 [SAR 1:1 DAR 256:135], q=2-31, 10000 kb/s, 50 fps, 50 tbn, 50 tbc (default)
    Metadata:
      creation_time   : 2018-07-10 11:08:50
      handler_name    : DJI.AVC
      encoder         : Lavc56.60.100 mjpeg
Stream mapping:
  Stream #0:0 -> #0:0 (h264 (native) -> mjpeg (native))
Press [q] to stop, [?] for help
frame=    1 fps=0.0 q=14.6 size=N/A time=00:00:00.02 bitrate=N/A    frame=    5 fps=4.6 q=24.1 size=N/A time=00:00:00.10 bitrate=N/A    frame=   10 fps=6.1 q=24.8 size=N/A time=00:00:00.20 bitrate=N/A    frame=   15 fps=6.8 q=24.8 size=N/A time=00:00:00.30 bitrate=N/A    frame=   20 fps=7.2 q=24.8 size=N/A time=00:00:00.40 bitrate=N/A    frame=   25 fps=7.5 q=24.8 size=N/A time=00:00:00.50 bitrate=N/A    frame=   30 fps=7.7 q=24.8 size=N/A time=00:00:00.60 bitrate=N/A    frame=   33 fps=7.5 q=24.8 size=N/A time=00:00:00.66 bitrate=N/A    frame=   38 fps=7.7 q=24.8 size=N/A time=00:00:00.76 bitrate=N/A    frame=   43 fps=7.8 q=24.8 size=N/A time=00:00:00.86 bitrate=N/A    frame=   48 fps=7.9 q=24.8 size=N/A time=00:00:00.96 bitrate=N/A    frame=   53 fps=8.0 q=24.8 size=N/A time=00:00:01.06 bitrate=N/A    frame=   58 fps=8.1 q=24.8 size=N/A time=00:00:01.16 bitrate=N/A    frame=   62 fps=8.0 q=24.8 size=N/A time=00:00:01.24 bitrate=N/A    frame=   67 fps=8.1 q=24.8 size=N/A time=00:00:01.34 bitrate=N/A    frame=   72 fps=8.2 q=24.8 size=N/A time=00:00:01.44 bitrate=N/A    frame=   77 fps=8.2 q=24.8 size=N/A time=00:00:01.54 bitrate=N/A    frame=   82 fps=8.3 q=24.8 size=N/A time=00:00:01.64 bitrate=N/A    frame=   87 fps=8.3 q=24.8 size=N/A time=00:00:01.74 bitrate=N/A    frame=   92 fps=8.3 q=24.8 size=N/A time=00:00:01.84 bitrate=N/A    frame=   97 fps=8.3 q=24.8 size=N/A time=00:00:01.94 bitrate=N/A    frame=  102 fps=8.4 q=24.8 size=N/A time=00:00:02.04 bitrate=N/A    frame=  107 fps=8.4 q=24.8 size=N/A time=00:00:02.14 bitrate=N/A    frame=  112 fps=8.4 q=24.8 size=N/A time=00:00:02.24 bitrate=N/A    frame=  117 fps=8.5 q=24.8 size=N/A time=00:00:02.34 bitrate=N/A    frame=  121 fps=8.4 q=24.8 size=N/A time=00:00:02.42 bitrate=N/A    frame=  126 fps=8.4 q=24.8 size=N/A time=00:00:02.52 bitrate=N/A    frame=  131 fps=8.5 q=24.8 size=N/A time=00:00:02.62 bitrate=N/A    frame=  136 fps=8.5 q=24.8 size=N/A time=00:00:02.72 bitrate=N/A    frame=  141 fps=8.5 q=24.8 size=N/A time=00:00:02.82 bitrate=N/A    frame=  146 fps=8.5 q=24.8 size=N/A time=00:00:02.92 bitrate=N/A    frame=  150 fps=8.5 q=24.8 size=N/A time=00:00:03.00 bitrate=N/A    frame=  155 fps=8.5 q=24.8 size=N/A time=00:00:03.10 bitrate=N/A    frame=  160 fps=8.5 q=24.8 size=N/A time=00:00:03.20 bitrate=N/A    frame=  165 fps=8.6 q=24.8 size=N/A time=00:00:03.30 bitrate=N/A    frame=  170 fps=8.6 q=24.8 size=N/A time=00:00:03.40 bitrate=N/A    frame=  175 fps=8.6 q=24.8 size=N/A time=00:00:03.50 bitrate=N/A    frame=  179 fps=8.6 q=24.8 size=N/A time=00:00:03.58 bitrate=N/A    frame=  184 fps=8.6 q=24.8 size=N/A time=00:00:03.68 bitrate=N/A    frame=  189 fps=8.6 q=24.8 size=N/A time=00:00:03.78 bitrate=N/A    frame=  194 fps=8.6 q=24.8 size=N/A time=00:00:03.88 bitrate=N/A    frame=  199 fps=8.6 q=24.8 size=N/A time=00:00:03.98 bitrate=N/A    frame=  204 fps=8.6 q=24.8 size=N/A time=00:00:04.08 bitrate=N/A    frame=  209 fps=8.6 q=24.8 size=N/A time=00:00:04.18 bitrate=N/A    frame=  214 fps=8.6 q=24.8 size=N/A time=00:00:04.28 bitrate=N/A    frame=  219 fps=8.7 q=24.8 size=N/A time=00:00:04.38 bitrate=N/A    frame=  224 fps=8.7 q=24.8 size=N/A time=00:00:04.48 bitrate=N/A    frame=  229 fps=8.7 q=24.8 size=N/A time=00:00:04.58 bitrate=N/A    frame=  234 fps=8.7 q=24.8 size=N/A time=00:00:04.68 bitrate=N/A    frame=  239 fps=8.7 q=24.8 size=N/A time=00:00:04.78 bitrate=N/A    frame=  244 fps=8.7 q=24.8 size=N/A time=00:00:04.88 bitrate=N/A    frame=  249 fps=8.7 q=24.8 size=N/A time=00:00:04.98 bitrate=N/A    frame=  254 fps=8.7 q=24.8 size=N/A time=00:00:05.08 bitrate=N/A    frame=  259 fps=8.7 q=24.8 size=N/A time=00:00:05.18 bitrate=N/A    frame=  264 fps=8.7 q=24.8 size=N/A time=00:00:05.28 bitrate=N/A    frame=  269 fps=8.7 q=24.8 size=N/A time=00:00:05.38 bitrate=N/A    frame=  274 fps=8.7 q=24.8 size=N/A time=00:00:05.48 bitrate=N/A    frame=  279 fps=8.7 q=24.8 size=N/A time=00:00:05.58 bitrate=N/A    frame=  284 fps=8.7 q=24.8 size=N/A time=00:00:05.68 bitrate=N/A    frame=  289 fps=8.7 q=24.8 size=N/A time=00:00:05.78 bitrate=N/A    frame=  294 fps=8.7 q=24.8 size=N/A time=00:00:05.88 bitrate=N/A    frame=  299 fps=8.7 q=24.8 size=N/A time=00:00:05.98 bitrate=N/A    frame=  304 fps=8.7 q=24.8 size=N/A time=00:00:06.08 bitrate=N/A    frame=  309 fps=8.7 q=24.8 size=N/A time=00:00:06.18 bitrate=N/A    frame=  314 fps=8.7 q=24.8 size=N/A time=00:00:06.28 bitrate=N/A    frame=  319 fps=8.7 q=24.8 size=N/A time=00:00:06.38 bitrate=N/A    frame=  324 fps=8.8 q=24.8 size=N/A time=00:00:06.48 bitrate=N/A    frame=  329 fps=8.7 q=24.8 size=N/A time=00:00:06.58 bitrate=N/A    frame=  334 fps=8.8 q=24.8 size=N/A time=00:00:06.68 bitrate=N/A    frame=  339 fps=8.8 q=24.8 size=N/A time=00:00:06.78 bitrate=N/A    frame=  344 fps=8.8 q=24.8 size=N/A time=00:00:06.88 bitrate=N/A    frame=  349 fps=8.8 q=24.8 size=N/A time=00:00:06.98 bitrate=N/A    frame=  354 fps=8.8 q=24.8 size=N/A time=00:00:07.08 bitrate=N/A    frame=  359 fps=8.8 q=24.8 size=N/A time=00:00:07.18 bitrate=N/A    frame=  364 fps=8.8 q=24.8 size=N/A time=00:00:07.28 bitrate=N/A    frame=  369 fps=8.8 q=24.8 size=N/A time=00:00:07.38 bitrate=N/A    frame=  374 fps=8.8 q=24.8 size=N/A time=00:00:07.48 bitrate=N/A    frame=  379 fps=8.8 q=24.8 size=N/A time=00:00:07.58 bitrate=N/A    frame=  384 fps=8.8 q=24.8 size=N/A time=00:00:07.68 bitrate=N/A    frame=  389 fps=8.8 q=24.8 size=N/A time=00:00:07.78 bitrate=N/A    frame=  394 fps=8.8 q=24.8 size=N/A time=00:00:07.88 bitrate=N/A    frame=  399 fps=8.8 q=24.8 size=N/A time=00:00:07.98 bitrate=N/A    frame=  404 fps=8.8 q=24.8 size=N/A time=00:00:08.08 bitrate=N/A    frame=  409 fps=8.8 q=24.8 size=N/A time=00:00:08.18 bitrate=N/A    frame=  414 fps=8.8 q=24.8 size=N/A time=00:00:08.28 bitrate=N/A    frame=  419 fps=8.8 q=24.8 size=N/A time=00:00:08.38 bitrate=N/A    frame=  424 fps=8.8 q=24.8 size=N/A time=00:00:08.48 bitrate=N/A    frame=  429 fps=8.8 q=24.8 size=N/A time=00:00:08.58 bitrate=N/A    frame=  434 fps=8.8 q=24.8 size=N/A time=00:00:08.68 bitrate=N/A    frame=  439 fps=8.8 q=24.8 size=N/A time=00:00:08.78 bitrate=N/A    frame=  444 fps=8.8 q=24.8 size=N/A time=00:00:08.88 bitrate=N/A    frame=  449 fps=8.8 q=24.8 size=N/A time=00:00:08.98 bitrate=N/A    frame=  454 fps=8.8 q=24.8 size=N/A time=00:00:09.08 bitrate=N/A    frame=  459 fps=8.8 q=24.8 size=N/A time=00:00:09.18 bitrate=N/A    frame=  464 fps=8.8 q=24.8 size=N/A time=00:00:09.28 bitrate=N/A    frame=  469 fps=8.8 q=24.8 size=N/A time=00:00:09.38 bitrate=N/A    frame=  474 fps=8.8 q=24.8 size=N/A time=00:00:09.48 bitrate=N/A    frame=  478 fps=8.8 q=24.8 size=N/A time=00:00:09.56 bitrate=N/A    frame=  483 fps=8.8 q=24.8 size=N/A time=00:00:09.66 bitrate=N/A    frame=  488 fps=8.8 q=24.8 size=N/A time=00:00:09.76 bitrate=N/A    frame=  493 fps=8.8 q=24.8 size=N/A time=00:00:09.86 bitrate=N/A    frame=  498 fps=8.8 q=24.8 size=N/A time=00:00:09.96 bitrate=N/A    frame=  503 fps=8.8 q=24.8 size=N/A time=00:00:10.06 bitrate=N/A    frame=  508 fps=8.8 q=24.8 size=N/A time=00:00:10.16 bitrate=N/A    frame=  512 fps=8.8 q=24.8 size=N/A time=00:00:10.24 bitrate=N/A    frame=  517 fps=8.8 q=24.8 size=N/A time=00:00:10.34 bitrate=N/A    frame=  522 fps=8.8 q=24.8 size=N/A time=00:00:10.44 bitrate=N/A    frame=  527 fps=8.8 q=24.8 size=N/A time=00:00:10.54 bitrate=N/A    frame=  532 fps=8.8 q=24.8 size=N/A time=00:00:10.64 bitrate=N/A    frame=  537 fps=8.8 q=24.8 size=N/A time=00:00:10.74 bitrate=N/A    frame=  541 fps=8.8 q=24.8 size=N/A time=00:00:10.82 bitrate=N/A    frame=  546 fps=8.8 q=24.8 size=N/A time=00:00:10.92 bitrate=N/A    frame=  551 fps=8.8 q=24.8 size=N/A time=00:00:11.02 bitrate=N/A    frame=  556 fps=8.8 q=24.8 size=N/A time=00:00:11.12 bitrate=N/A    frame=  561 fps=8.8 q=24.8 size=N/A time=00:00:11.22 bitrate=N/A    frame=  566 fps=8.8 q=24.8 size=N/A time=00:00:11.32 bitrate=N/A    frame=  571 fps=8.8 q=24.8 size=N/A time=00:00:11.42 bitrate=N/A    frame=  576 fps=8.8 q=24.8 size=N/A time=00:00:11.52 bitrate=N/A    frame=  581 fps=8.8 q=24.8 size=N/A time=00:00:11.62 bitrate=N/A    frame=  586 fps=8.8 q=24.8 size=N/A time=00:00:11.72 bitrate=N/A    frame=  591 fps=8.8 q=24.8 size=N/A time=00:00:11.82 bitrate=N/A    frame=  596 fps=8.8 q=24.8 size=N/A time=00:00:11.92 bitrate=N/A    frame=  601 fps=8.8 q=24.8 size=N/A time=00:00:12.02 bitrate=N/A    frame=  606 fps=8.8 q=24.8 size=N/A time=00:00:12.12 bitrate=N/A    frame=  611 fps=8.8 q=24.8 size=N/A time=00:00:12.22 bitrate=N/A    frame=  616 fps=8.8 q=24.8 size=N/A time=00:00:12.32 bitrate=N/A    frame=  621 fps=8.8 q=24.8 size=N/A time=00:00:12.42 bitrate=N/A    frame=  626 fps=8.8 q=24.8 size=N/A time=00:00:12.52 bitrate=N/A    frame=  630 fps=8.8 q=24.8 size=N/A time=00:00:12.60 bitrate=N/A    frame=  635 fps=8.8 q=24.8 size=N/A time=00:00:12.70 bitrate=N/A    frame=  640 fps=8.8 q=24.8 size=N/A time=00:00:12.80 bitrate=N/A    frame=  645 fps=8.8 q=24.8 size=N/A time=00:00:12.90 bitrate=N/A    frame=  650 fps=8.8 q=24.8 size=N/A time=00:00:13.00 bitrate=N/A    frame=  655 fps=8.8 q=24.8 size=N/A time=00:00:13.10 bitrate=N/A    frame=  660 fps=8.8 q=24.8 size=N/A time=00:00:13.20 bitrate=N/A    frame=  665 fps=8.8 q=24.8 size=N/A time=00:00:13.30 bitrate=N/A    frame=  670 fps=8.8 q=24.8 size=N/A time=00:00:13.40 bitrate=N/A    frame=  675 fps=8.8 q=24.8 size=N/A time=00:00:13.50 bitrate=N/A    frame=  680 fps=8.8 q=24.8 size=N/A time=00:00:13.60 bitrate=N/A    frame=  685 fps=8.8 q=24.8 size=N/A time=00:00:13.70 bitrate=N/A    frame=  690 fps=8.8 q=24.8 size=N/A time=00:00:13.80 bitrate=N/A    frame=  694 fps=8.8 q=24.8 size=N/A time=00:00:13.88 bitrate=N/A    frame=  699 fps=8.8 q=24.8 size=N/A time=00:00:13.98 bitrate=N/A    frame=  704 fps=8.8 q=24.8 size=N/A time=00:00:14.08 bitrate=N/A    frame=  709 fps=8.8 q=24.8 size=N/A time=00:00:14.18 bitrate=N/A    frame=  714 fps=8.8 q=24.8 size=N/A time=00:00:14.28 bitrate=N/A    frame=  719 fps=8.8 q=24.8 size=N/A time=00:00:14.38 bitrate=N/A    frame=  723 fps=8.8 q=24.8 size=N/A time=00:00:14.46 bitrate=N/A    frame=  728 fps=8.8 q=24.8 size=N/A time=00:00:14.56 bitrate=N/A    frame=  733 fps=8.8 q=24.8 size=N/A time=00:00:14.66 bitrate=N/A    frame=  738 fps=8.8 q=24.8 size=N/A time=00:00:14.76 bitrate=N/A    frame=  743 fps=8.8 q=24.8 size=N/A time=00:00:14.86 bitrate=N/A    frame=  748 fps=8.8 q=24.8 size=N/A time=00:00:14.96 bitrate=N/A    frame=  749 fps=8.8 q=24.8 Lsize=N/A time=00:00:14.98 bitrate=N/A    
video:494586kB audio:0kB subtitle:0kB other streams:0kB global headers:0kB muxing overhead: unknown
+ turkic load DJI_0043_autonyom_regi_turasok_kotcse_20180710_napos_kalaszos_T4 /home/horvathandras/vatic/vatic/videos/DJI_0043_autonyom_regi_turasok_kotcse_20180710_napos_kalaszos_T4 $'Pozit\303\255vROI' $'Negat\303\255vROI' $'T\303\272r\303\241s' '~Friss' '~1-2Hetes' '~Régebbi' '~Egyéb1' '~Egyéb2' '~Egyéb3' $'R\303\241g\303\241s' '~Friss' '~1-2Hetes' '~Régebbi' '~Egyéb1' '~Egyéb2' '~Egyéb3' $'T\303\266r\303\251s' '~Friss' '~1-2Hetes' '~Régebbi' '~Egyéb1' '~Egyéb2' '~Egyéb3' $'Tapos\303\241s' '~Friss' '~1-2Hetes' '~Régebbi' '~Egyéb1' '~Egyéb2' '~Egyéb3' $'Eg\303\251szs\303\251gesN\303\266v\303\251ny' $'Egy\303\251b1' $'Egy\303\251b2' $'Egy\303\251b3' $'Egy\303\251b4' $'Egy\303\251b5' Bizonytalan $'M\305\261vel\305\221\303\272t' $'Gktapos\303\241s' $'Vet\305\221hiba' $'Sz\303\251ld\303\266nt\303\251s' $'J\303\251gk\303\241r' $'Belv\303\255z' $'Asz\303\241ly' $'Er\303\263zi\303\263' $'Egyszik\305\261Gyom' $'K\303\251tszik\305\261Gyom' $'Egy\303\251bN\303\266vv\303\251delmiPR' --offline --title '$filenameNoDot Video' --length 1000 --description 'vatic annotation'
+ turkic publish --offline
+ mkdir /home/horvathandras/vatic/vatic/public/videothumbnails/DJI_0043_autonyom_regi_turasok_kotcse_20180710_napos_kalaszos_T4
+ cp /home/horvathandras/vatic/vatic/videos/DJI_0043_autonyom_regi_turasok_kotcse_20180710_napos_kalaszos_T4/0/0/31.jpg /home/horvathandras/vatic/vatic/public/videothumbnails/DJI_0043_autonyom_regi_turasok_kotcse_20180710_napos_kalaszos_T4/thumb.jpg
